# xmcd
#
# Track frame offsets:
#	150
#	17134
#	33399
#	48696
#	62111
#	75427
#	91349
#	106782
#	123019
#	139242
#	161055
#	174542
#	186398
#	201120
#	230355
#
# Disc length: 4440 seconds
#
# Revision: 0
# Processed by: cddbd v1.5.1PL2 Copyright (c) Steve Scherf et al.
# Submitted via: dBpowerAMP V4.0
#
DISCID=c511560f
DTITLE=ROBERTA MIRANDA - ACUSTICO
DYEAR=2005
DGENRE=Country
TTITLE0=MAGESTADE O SABIA - QUE VA A LUTA
TTITLE1=O PIOR JA PASSOU
TTITLE2=UM MINUTO A MAIS
TTITLE3=DE IGUAL PRA IGUAL
TTITLE4=FOI VOCE QUEM QUIS
TTITLE5=VAMOS FALAR DE NOS
TTITLE6=EU QUERO SEMPRE MAIS
TTITLE7=IDEAL PRA MIM
TTITLE8=LEMBRANÇAS
TTITLE9=SEM LADO ESQUERDO
TTITLE10=MAIS UMA VEZ
TTITLE11=PEÃO DO MUNDO INTEIRO
TTITLE12=MEUS MOMENTOS
TTITLE13=VA COM DEUS
TTITLE14=DATA
EXTD=
EXTT0=
EXTT1=
EXTT2=
EXTT3=
EXTT4=
EXTT5=
EXTT6=
EXTT7=
EXTT8=
EXTT9=
EXTT10=
EXTT11=
EXTT12=
EXTT13=
EXTT14=
PLAYORDER=
